<svg xmlns="http://www.w3.org/2000/svg" viewBox="0 0 419.48 68.03"><defs><style>.cls-1{fill:#ffbe00;}.cls-2{fill:#66b500;}</style></defs><title>アセット 2</title><g id="レイヤー_2" data-name="レイヤー 2"><g id="レイヤー_1-2" data-name="レイヤー 1"><path class="cls-1" d="M382.57,56.37a18.19,18.19,0,0,1-25.62,0l-5.71,3.28a24.66,24.66,0,0,0,37,0Z"/><path class="cls-2" d="M0,12.46H7.07v1.73a10,10,0,0,1,6.74-2.47A9.42,9.42,0,0,1,22,16.33,9.65,9.65,0,0,1,40,21.5V51.59H32.88v-29a4.69,4.69,0,0,0-9.37,0v29H16.44v-29A4.73,4.73,0,0,0,11.75,18a4.61,4.61,0,0,0-4.68,4.6v29H0Z"/><path class="cls-2" d="M62.48,51.59v-.91a15.08,15.08,0,0,1-6.08.91c-6.66,0-11.18-4.28-11.18-10.61S49.74,30,56,30h2.22a4.29,4.29,0,0,0,3-1.32c1-1.06,1.23-2,1.23-5.09v-.82a4.65,4.65,0,1,0-9.29,0v.82H46.12c.41-7.15,5-11.92,11.59-11.92a12.39,12.39,0,0,1,9.62,4.69c1.81,2.29,2.22,3.69,2.22,7.23v28Zm0-16.36a9.66,9.66,0,0,1-4.36,1h-1.8a4.24,4.24,0,0,0-4,4.43c0,3.05,1.81,4.69,5.18,4.69,3.12,0,5-1.72,5-4.52Z"/><path class="cls-2" d="M75.77,12.42h7.07v2c2.55-1.72,3.62-2,8.22-2h2.31v6.25H91c-3.12,0-4.11.24-5.51,1.23a5.92,5.92,0,0,0-2.63,4.94V51.59H75.77Z"/><path class="cls-2" d="M97.58,3.14h7.07v23l9.69-13.65h7.81L109.16,31l13,20.55h-7.81l-9.69-15.46V51.59H97.58Z"/><path class="cls-2" d="M162.59,43.29c0,1.48.66,2.05,2.39,2.05h3.86v6.25h-6.25c-4.11,0-7.07-2.63-7.07-6.25V18.68h-3.88V12.43h3.88V4.27L162.59,0V12.43h7.85v6.25h-7.85Z"/><path class="cls-2" d="M175.16,12.46h7.07V51.59h-7.07ZM175.49,0h6.25V6.25h-6.25Z"/><path class="cls-2" d="M188.44,12.46h7.07v1.73a9.51,9.51,0,0,1,6.58-2.55A9.77,9.77,0,0,1,212,21.42V51.59h-7.07V22.66a4.55,4.55,0,0,0-4.69-4.77,4.64,4.64,0,0,0-4.68,4.77V51.59h-7.07Z"/><path class="cls-2" d="M241.3,55.87a11.37,11.37,0,0,1-2.06,7.31A12.21,12.21,0,0,1,229.55,68a11.26,11.26,0,0,1-9.79-5.26l5.67-3.29a3.82,3.82,0,0,0,3.79,2.3,4.74,4.74,0,0,0,5-5V49.12a9.94,9.94,0,0,1-6.57,2.47,9.83,9.83,0,0,1-7.73-3.78c-1.64-2-2.14-3.53-2.14-6.58V21.42a9.66,9.66,0,0,1,9.54-9.78,10,10,0,0,1,6.9,2.71V12.46h7.07ZM224.86,40c0,3,2,5.34,4.77,5.34,2.55,0,4.6-2.38,4.6-5.34V22.82a4.69,4.69,0,1,0-9.37,0Z"/><path class="cls-2" d="M288.47,40.33c0,7-4.93,12.08-11.76,12.08-6.66,0-11.67-5.18-11.67-12.08V23.47a11.58,11.58,0,0,1,11.59-11.83,12.06,12.06,0,0,1,10.11,5.43,12.17,12.17,0,0,1,1.73,6.4h-7.24v-.81a4.66,4.66,0,0,0-4.52-4.77,4.8,4.8,0,0,0-4.6,4.77V41.23c0,3,1.81,4.93,4.52,4.93s4.6-2,4.6-4.93v-.9Z"/><path class="cls-2" d="M310.21,51.59v-.91a15,15,0,0,1-6.08.91C297.47,51.59,293,47.31,293,41s4.52-11,10.77-11h2.21A4.27,4.27,0,0,0,309,28.65c1-1.06,1.23-2,1.23-5.09v-.82a4.65,4.65,0,1,0-9.29,0v.82h-7.07c.41-7.15,5-11.92,11.59-11.92a12.39,12.39,0,0,1,9.62,4.69c1.81,2.29,2.22,3.69,2.22,7.23v28Zm0-16.36a9.66,9.66,0,0,1-4.36,1H304a4.24,4.24,0,0,0-4,4.43c0,3.05,1.81,4.69,5.18,4.69,3.12,0,5-1.72,5-4.52Z"/><path class="cls-2" d="M323.56,12.71h7.07v2c2.55-1.73,3.62-2,8.22-2h2.3V19h-2.38c-3.12,0-4.11.24-5.51,1.23a5.91,5.91,0,0,0-2.63,4.93V51.59h-7.07Z"/><path class="cls-2" d="M401.89,12.71H409v2c2.55-1.73,3.62-2,8.22-2h2.3V19H417.1c-3.13,0-4.11.24-5.5,1.23A5.9,5.9,0,0,0,409,25.12V51.59h-7.07Z"/><path class="cls-1" d="M388.71,40.24v.25c0,3.54-1.73,5.67-4.53,5.67-3,0-4.85-2.3-4.85-5.92V22.9a4.69,4.69,0,1,1,9.38,0v4h-5.87v6.25h12.94V23.72A11.61,11.61,0,0,0,383.94,11.8a11.93,11.93,0,0,0-11.67,11.92V40.24c0,7,4.93,12.17,11.76,12.17a11.68,11.68,0,0,0,10.18-5.67c1.24-1.81,1.4-2.8,1.57-6.5V36.68h-7.07Z"/><path class="cls-1" d="M360.17,40.24v.25c0,3.54-1.73,5.67-4.53,5.67s-4.85-2.3-4.85-5.92V22.9a4.69,4.69,0,1,1,9.38,0v4H354.3v6.25h12.94V23.72A11.61,11.61,0,0,0,355.4,11.8a11.93,11.93,0,0,0-11.67,11.92V40.24c0,7,4.93,12.17,11.76,12.17a11.67,11.67,0,0,0,10.18-5.67c1.24-1.81,1.4-2.8,1.57-6.5V36.68h-7.07Z"/><path class="cls-2" d="M140.79,40.24v.25c0,3.54-1.73,5.67-4.52,5.67-3,0-4.85-2.3-4.85-5.92V22.9a4.69,4.69,0,1,1,9.37,0v4h-5.86v6.25h12.93V23.72A11.61,11.61,0,0,0,136,11.8a11.93,11.93,0,0,0-11.67,11.92V40.24c0,7,4.93,12.17,11.76,12.17a11.7,11.7,0,0,0,10.19-5.67c1.23-1.81,1.4-2.8,1.56-6.5V36.68h-7.07Z"/></g></g><style xmlns="http://www.w3.org/1999/xhtml" charset="utf-8" type="text/css" class="firebugResetStyles">/* See license.txt for terms of usage */
/** reset styling **/
.firebugResetStyles {
    z-index: 2147483646 !important;
    top: 0 !important;
    left: 0 !important;
    display: block !important;
    border: 0 none !important;
    margin: 0 !important;
    padding: 0 !important;
    outline: 0 !important;
    min-width: 0 !important;
    max-width: none !important;
    min-height: 0 !important;
    max-height: none !important;
    position: fixed !important;
    transform: rotate(0deg) !important;
    transform-origin: 50% 50% !important;
    border-radius: 0 !important;
    box-shadow: none !important;
    background: transparent none !important;
    pointer-events: none !important;
    white-space: normal !important;
}
style.firebugResetStyles {
    display: none !important;
}

.firebugBlockBackgroundColor {
    background-color: transparent !important;
}

.firebugResetStyles:before, .firebugResetStyles:after {
    content: "" !important;
}
/**actual styling to be modified by firebug theme**/
.firebugCanvas {
    display: none !important;
}

/* * * * * * * * * * * * * * * * * * * * * * * * * * * * * * * * * * * * * * * * * * * * * * * * */
.firebugLayoutBox {
    width: auto !important;
    position: static !important;
}

.firebugLayoutBoxOffset {
    opacity: 0.8 !important;
    position: fixed !important;
}

.firebugLayoutLine {
    opacity: 0.4 !important;
    background-color: #000000 !important;
}

.firebugLayoutLineLeft, .firebugLayoutLineRight {
    width: 1px !important;
    height: 100% !important;
}

.firebugLayoutLineTop, .firebugLayoutLineBottom {
    width: 100% !important;
    height: 1px !important;
}

.firebugLayoutLineTop {
    margin-top: -1px !important;
    border-top: 1px solid #999999 !important;
}

.firebugLayoutLineRight {
    border-right: 1px solid #999999 !important;
}

.firebugLayoutLineBottom {
    border-bottom: 1px solid #999999 !important;
}

.firebugLayoutLineLeft {
    margin-left: -1px !important;
    border-left: 1px solid #999999 !important;
}

/* * * * * * * * * * * * * * * * * * * * * * * * * * * * * * * * * * * * * * * * * * * * * * * * */
.firebugLayoutBoxParent {
    border-top: 0 none !important;
    border-right: 1px dashed #E00 !important;
    border-bottom: 1px dashed #E00 !important;
    border-left: 0 none !important;
    position: fixed !important;
    width: auto !important;
}

.firebugRuler{
    position: absolute !important;
}

.firebugRulerH {
    top: -15px !important;
    left: 0 !important;
    width: 100% !important;
    height: 14px !important;
    background: url("data:image/png,%89PNG%0D%0A%1A%0A%00%00%00%0DIHDR%00%00%13%88%00%00%00%0E%08%02%00%00%00L%25a%0A%00%00%00%04gAMA%00%00%D6%D8%D4OX2%00%00%00%19tEXtSoftware%00Adobe%20ImageReadyq%C9e%3C%00%00%04%F8IDATx%DA%EC%DD%D1n%E2%3A%00E%D1%80%F8%FF%EF%E2%AF2%95%D0D4%0E%C1%14%B0%8Fa-%E9%3E%CC%9C%87n%B9%81%A6W0%1C%A6i%9A%E7y%0As8%1CT%A9R%A5J%95*U%AAT%A9R%A5J%95*U%AAT%A9R%A5J%95*U%AAT%A9R%A5J%95*U%AAT%A9R%A5J%95*U%AAT%A9R%A5J%95*U%AAT%A9R%A5J%95*U%AATE9%FE%FCw%3E%9F%AF%2B%2F%BA%97%FDT%1D~K(%5C%9D%D5%EA%1B%5C%86%B5%A9%BDU%B5y%80%ED%AB*%03%FAV9%AB%E1%CEj%E7%82%EF%FB%18%BC%AEJ8%AB%FA'%D2%BEU9%D7U%ECc0%E1%A2r%5DynwVi%CFW%7F%BB%17%7Dy%EACU%CD%0E%F0%FA%3BX%FEbV%FEM%9B%2B%AD%BE%AA%E5%95v%AB%AA%E3E5%DCu%15rV9%07%B5%7F%B5w%FCm%BA%BE%AA%FBY%3D%14%F0%EE%C7%60%0EU%AAT%A9R%A5J%95*U%AAT%A9R%A5J%95*U%AAT%A9R%A5J%95*U%AAT%A9R%A5J%95*U%AAT%A9R%A5JU%88%D3%F5%1F%AE%DF%3B%1B%F2%3E%DAUCNa%F92%D02%AC%7Dm%F9%3A%D4%F2%8B6%AE*%BF%5C%C2Ym~9g5%D0Y%95%17%7C%C8c%B0%7C%18%26%9CU%CD%13i%F7%AA%90%B3Z%7D%95%B4%C7%60%E6E%B5%BC%05%B4%FBY%95U%9E%DB%FD%1C%FC%E0%9F%83%7F%BE%17%7DkjMU%E3%03%AC%7CWj%DF%83%9An%BCG%AE%F1%95%96yQ%0Dq%5Dy%00%3Et%B5'%FC6%5DS%95pV%95%01%81%FF'%07%00%00%00%00%00%00%00%00%00%F8x%C7%F0%BE%9COp%5D%C9%7C%AD%E7%E6%EBV%FB%1E%E0(%07%E5%AC%C6%3A%ABi%9C%8F%C6%0E9%AB%C0'%D2%8E%9F%F99%D0E%B5%99%14%F5%0D%CD%7F%24%C6%DEH%B8%E9rV%DFs%DB%D0%F7%00k%FE%1D%84%84%83J%B8%E3%BA%FB%EF%20%84%1C%D7%AD%B0%8E%D7U%C8Y%05%1E%D4t%EF%AD%95Q%BF8w%BF%E9%0A%BF%EB%03%00%00%00%00%00%00%00%00%00%B8vJ%8E%BB%F5%B1u%8Cx%80%E1o%5E%CA9%AB%CB%CB%8E%03%DF%1D%B7T%25%9C%D5(%EFJM8%AB%CC'%D2%B2*%A4s%E7c6%FB%3E%FA%A2%1E%80~%0E%3E%DA%10x%5D%95Uig%15u%15%ED%7C%14%B6%87%A1%3B%FCo8%A8%D8o%D3%ADO%01%EDx%83%1A~%1B%9FpP%A3%DC%C6'%9C%95gK%00%00%00%00%00%00%00%00%00%20%D9%C9%11%D0%C0%40%AF%3F%EE%EE%92%94%D6%16X%B5%BCMH%15%2F%BF%D4%A7%C87%F1%8E%F2%81%AE%AAvzr%DA2%ABV%17%7C%E63%83%E7I%DC%C6%0Bs%1B%EF6%1E%00%00%00%00%00%00%00%00%00%80cr%9CW%FF%7F%C6%01%0E%F1%CE%A5%84%B3%CA%BC%E0%CB%AA%84%CE%F9%BF)%EC%13%08WU%AE%AB%B1%AE%2BO%EC%8E%CBYe%FE%8CN%ABr%5Dy%60~%CFA%0D%F4%AE%D4%BE%C75%CA%EDVB%EA(%B7%F1%09g%E5%D9%12%00%00%00%00%00%00%00%00%00H%F6%EB%13S%E7y%5E%5E%FB%98%F0%22%D1%B2'%A7%F0%92%B1%BC%24z3%AC%7Dm%60%D5%92%B4%7CEUO%5E%F0%AA*%3BU%B9%AE%3E%A0j%94%07%A0%C7%A0%AB%FD%B5%3F%A0%F7%03T%3Dy%D7%F7%D6%D4%C0%AAU%D2%E6%DFt%3F%A8%CC%AA%F2%86%B9%D7%F5%1F%18%E6%01%F8%CC%D5%9E%F0%F3z%88%AA%90%EF%20%00%00%00%00%00%00%00%00%00%C0%A6%D3%EA%CFi%AFb%2C%7BB%0A%2B%C3%1A%D7%06V%D5%07%A8r%5D%3D%D9%A6%CAu%F5%25%CF%A2%99%97zNX%60%95%AB%5DUZ%D5%FBR%03%AB%1C%D4k%9F%3F%BB%5C%FF%81a%AE%AB'%7F%F3%EA%FE%F3z%94%AA%D8%DF%5B%01%00%00%00%00%00%00%00%00%00%8E%FB%F3%F2%B1%1B%8DWU%AAT%A9R%A5J%95*U%AAT%A9R%A5J%95*U%AAT%A9R%A5J%95*U%AAT%A9R%A5J%95*U%AAT%A9R%A5J%95*U%AAT%A9R%A5J%95*U%AAT%A9R%A5J%95*UiU%C7%BBe%E7%F3%B9%CB%AAJ%95*U%AAT%A9R%A5J%95*U%AAT%A9R%A5J%95*U%AAT%A9R%A5J%95*U%AAT%A9R%A5J%95*U%AAT%A9R%A5J%95*U%AAT%A9R%A5J%95*U%AAT%A9R%A5*%AAj%FD%C6%D4%5Eo%90%B5Z%ADV%AB%D5j%B5Z%ADV%AB%D5j%B5Z%ADV%AB%D5j%B5Z%ADV%AB%D5j%B5Z%ADV%AB%D5j%B5Z%ADV%AB%D5j%B5Z%ADV%AB%D5j%B5%86%AF%1B%9F%98%DA%EBm%BBV%AB%D5j%B5Z%ADV%AB%D5j%B5Z%ADV%AB%D5j%B5Z%ADV%AB%D5j%B5Z%ADV%AB%D5j%B5Z%ADV%AB%D5j%B5Z%ADV%AB%D5j%B5Z%AD%D6%E4%F58%01%00%00%00%00%00%00%00%00%00%00%00%00%00%40%85%7F%02%0C%008%C2%D0H%16j%8FX%00%00%00%00IEND%AEB%60%82") repeat-x !important;
    border-top: 1px solid #BBBBBB !important;
    border-right: 1px dashed #BBBBBB !important;
    border-bottom: 1px solid #000000 !important;
}

.firebugRulerV {
    top: 0 !important;
    left: -15px !important;
    width: 14px !important;
    height: 100% !important;
    background: url("data:image/png,%89PNG%0D%0A%1A%0A%00%00%00%0DIHDR%00%00%00%0E%00%00%13%88%08%02%00%00%00%0E%F5%CB%10%00%00%00%04gAMA%00%00%D6%D8%D4OX2%00%00%00%19tEXtSoftware%00Adobe%20ImageReadyq%C9e%3C%00%00%06~IDATx%DA%EC%DD%D1v%A20%14%40Qt%F1%FF%FF%E4%97%D9%07%3BT%19%92%DC%40(%90%EEy%9A5%CB%B6%E8%F6%9Ac%A4%CC0%84%FF%DC%9E%CF%E7%E3%F1%88%DE4%F8%5D%C7%9F%2F%BA%DD%5E%7FI%7D%F18%DDn%BA%C5%FB%DF%97%BFk%F2%10%FF%FD%B4%F2M%A7%FB%FD%FD%B3%22%07p%8F%3F%AE%E3%F4S%8A%8F%40%EEq%9D%BE8D%F0%0EY%A1Uq%B7%EA%1F%81%88V%E8X%3F%B4%CEy%B7h%D1%A2E%EBohU%FC%D9%AF2fO%8BBeD%BE%F7X%0C%97%A4%D6b7%2Ck%A5%12%E3%9B%60v%B7r%C7%1AI%8C%BD%2B%23r%00c0%B2v%9B%AD%CA%26%0C%1Ek%05A%FD%93%D0%2B%A1u%8B%16-%95q%5Ce%DCSO%8E%E4M%23%8B%F7%C2%FE%40%BB%BD%8C%FC%8A%B5V%EBu%40%F9%3B%A72%FA%AE%8C%D4%01%CC%B5%DA%13%9CB%AB%E2I%18%24%B0n%A9%0CZ*Ce%9C%A22%8E%D8NJ%1E%EB%FF%8F%AE%CAP%19*%C3%BAEKe%AC%D1%AAX%8C*%DEH%8F%C5W%A1e%AD%D4%B7%5C%5B%19%C5%DB%0D%EF%9F%19%1D%7B%5E%86%BD%0C%95%A12%AC%5B*%83%96%CAP%19%F62T%86%CAP%19*%83%96%CA%B8Xe%BC%FE)T%19%A1%17xg%7F%DA%CBP%19*%C3%BA%A52T%86%CAP%19%F62T%86%CA%B0n%A9%0CZ%1DV%C6%3D%F3%FCH%DE%B4%B8~%7F%5CZc%F1%D6%1F%AF%84%F9%0F6%E6%EBVt9%0E~%BEr%AF%23%B0%97%A12T%86%CAP%19%B4T%86%CA%B8Re%D8%CBP%19*%C3%BA%A52huX%19%AE%CA%E5%BC%0C%7B%19*CeX%B7h%A9%0C%95%E1%BC%0C%7B%19*CeX%B7T%06%AD%CB%5E%95%2B%BF.%8F%C5%97%D5%E4%7B%EE%82%D6%FB%CF-%9C%FD%B9%CF%3By%7B%19%F62T%86%CA%B0n%D1R%19*%A3%D3%CA%B0%97%A12T%86uKe%D0%EA%B02*%3F1%99%5DB%2B%A4%B5%F8%3A%7C%BA%2B%8Co%7D%5C%EDe%A8%0C%95a%DDR%19%B4T%C66%82fA%B2%ED%DA%9FC%FC%17GZ%06%C9%E1%B3%E5%2C%1A%9FoiB%EB%96%CA%A0%D5qe4%7B%7D%FD%85%F7%5B%ED_%E0s%07%F0k%951%ECr%0D%B5C%D7-g%D1%A8%0C%EB%96%CA%A0%A52T%C6)*%C3%5E%86%CAP%19%D6-%95A%EB*%95q%F8%BB%E3%F9%AB%F6%E21%ACZ%B7%22%B7%9B%3F%02%85%CB%A2%5B%B7%BA%5E%B7%9C%97%E1%BC%0C%EB%16-%95%A12z%AC%0C%BFc%A22T%86uKe%D0%EA%B02V%DD%AD%8A%2B%8CWhe%5E%AF%CF%F5%3B%26%CE%CBh%5C%19%CE%CB%B0%F3%A4%095%A1%CAP%19*Ce%A8%0C%3BO*Ce%A8%0C%95%A12%3A%AD%8C%0A%82%7B%F0v%1F%2FD%A9%5B%9F%EE%EA%26%AF%03%CA%DF9%7B%19*Ce%A8%0C%95%A12T%86%CA%B8Ze%D8%CBP%19*Ce%A8%0C%95%D1ae%EC%F7%89I%E1%B4%D7M%D7P%8BjU%5C%BB%3E%F2%20%D8%CBP%19*Ce%A8%0C%95%A12T%C6%D5*%C3%5E%86%CAP%19*Ce%B4O%07%7B%F0W%7Bw%1C%7C%1A%8C%B3%3B%D1%EE%AA%5C%D6-%EBV%83%80%5E%D0%CA%10%5CU%2BD%E07YU%86%CAP%19*%E3%9A%95%91%D9%A0%C8%AD%5B%EDv%9E%82%FFKOee%E4%8FUe%A8%0C%95%A12T%C6%1F%A9%8C%C8%3D%5B%A5%15%FD%14%22r%E7B%9F%17l%F8%BF%ED%EAf%2B%7F%CF%ECe%D8%CBP%19*Ce%A8%0C%95%E1%93~%7B%19%F62T%86%CAP%19*Ce%A8%0C%E7%13%DA%CBP%19*Ce%A8%0CZf%8B%16-Z%B4h%D1R%19f%8B%16-Z%B4h%D1R%19%B4%CC%16-Z%B4h%D1R%19%B4%CC%16-Z%B4h%D1%A2%A52%CC%16-Z%B4h%D1%A2%A52h%99-Z%B4h%D1%A2%A52h%99-Z%B4h%D1%A2EKe%98-Z%B4h%D1%A2EKe%D02%5B%B4h%D1%A2EKe%D02%5B%B4h%D1%A2E%8B%96%CA0%5B%B4h%D1%A2E%8B%96%CA%A0e%B6h%D1%A2E%8B%96%CA%A0e%B6h%D1%A2E%8B%16-%95a%B6h%D1%A2E%8B%16-%95A%CBl%D1%A2E%8B%16-%95A%CBl%D1%A2E%8B%16-Z*%C3l%D1%A2E%8B%16-Z*%83%96%D9%A2E%8B%16-Z*%83%96%D9%A2E%8B%16-Z%B4T%86%D9%A2E%8B%16-Z%B4T%06-%B3E%8B%16-Z%B4T%06-%B3E%8B%16-Z%B4h%A9%0C%B3E%8B%16-Z%B4h%A9%0CZf%8B%16-Z%B4h%A9%0CZf%8B%16-Z%B4h%D1R%19f%8B%16-Z%B4h%D1R%19%B4%CC%16-Z%B4h%D1R%19%B4%CC%16-Z%B4h%D1%A2%A52%CC%16-Z%B4h%D1%A2%A52h%99-Z%B4h%D1%A2%A52h%99-Z%B4h%D1%A2EKe%98-Z%B4h%D1%A2EKe%D02%5B%B4h%D1%A2EKe%D02%5B%B4h%D1%A2E%8B%96%CA0%5B%B4h%D1%A2E%8B%96%CA%A0e%B6h%D1%A2E%8B%96%CA%A0e%B6h%D1%A2E%8B%16-%95a%B6h%D1%A2E%8B%16-%95A%CBl%D1%A2E%8B%16-%95A%CBl%D1%A2E%8B%16-Z*%C3l%D1%A2E%8B%16-Z*%83%96%D9%A2E%8B%16-Z*%83%96%D9%A2E%8B%16-Z%B4T%86%D9%A2E%8B%16-Z%B4T%06-%B3E%8B%16-Z%B4T%06-%B3E%8B%16-Z%B4h%A9%0C%B3E%8B%16-Z%B4h%A9%0CZf%8B%16-Z%B4h%A9%0CZf%8B%16-Z%B4h%D1R%19f%8B%16-Z%B4h%D1R%19%B4%CC%16-Z%B4h%D1R%19%B4%CC%16-Z%B4h%D1%A2%A52%CC%16-Z%B4h%D1%A2%A52h%99-Z%B4h%D1%A2%A52h%99-Z%B4h%D1%A2EKe%98-Z%B4h%D1%A2EKe%D02%5B%B4h%D1%A2EKe%D02%5B%B4h%D1%A2E%8B%96%CA0%5B%B4h%D1%A2E%8B%96%CA%A0e%B6h%D1%A2E%8B%96%CA%A0e%B6h%D1%A2E%8B%16-%95a%B6h%D1%A2E%8B%16-%95A%CBl%D1%A2E%8B%16-%95A%CBl%D1%A2E%8B%16-Z*%C3l%D1%A2E%8B%16-Z*%83%96%D9%A2E%8B%16-Z*%83%96%D9%A2E%8B%16-Z%B4T%86%D9%A2E%8B%16-Z%B4T%06-%B3E%8B%16-Z%B4%AE%A4%F5%25%C0%00%DE%BF%5C'%0F%DA%B8q%00%00%00%00IEND%AEB%60%82") repeat-y !important;
    border-left: 1px solid #BBBBBB !important;
    border-right: 1px solid #000000 !important;
    border-bottom: 1px dashed #BBBBBB !important;
}

.overflowRulerX &gt; .firebugRulerV {
    left: 0 !important;
}

.overflowRulerY &gt; .firebugRulerH {
    top: 0 !important;
}

/* * * * * * * * * * * * * * * * * * * * * * * * * * * * * * * * * * * * * * * * * * * * * * * * */
.fbProxyElement {
    position: fixed !important;
    pointer-events: auto !important;
}
</style></svg>